# xmcd
#
# Track frame offsets:
#	150
#	43376
#	56646
#	77590
#	98235
#	113568
#	135278
#	151537
#	170082
#	188327
#	204057
#	216632
#	225877
#	234671
#
# Disc length: 3326 seconds
#
# Revision: 0
# Processed by: cddbd v1.5.2PL0 Copyright (c) Steve Scherf et al.
# Submitted via: EZCDAudioConverter 3.0.8.1
#
DISCID=a90cfc0e
DTITLE=ARTISTAS VARIOS - MUSICA DE PELICULAS
DYEAR=2016
DGENRE=
TTITLE0=WHITNEY HOUSTON - I WILL ALWAYS LOVE YOU
TTITLE1=RACHYD - OH PRETTY WOMAN
TTITLE2=LYNDA WALSH - MY HERT WELL GO ON
TTITLE3=SIMON and GARFUNKEL - THE SONDS OF SILENCE
TTITLE4=ROBBY DURANTE - NEW YORK NEW YORK
TTITLE5=KENNY LEWIS - HAVE YOU EVER REALLY LOVED A WOMAN
TTITLE6=THE LKC - FOOTLOOSE
TTITLE7=IRENE CARA - WHAT A FEELING
TTITLE8=GARY LEE - LADY IN RED
TTITLE9=THE LOVE SOUND - LOVE STORY
TTITLE10=DAVE NAYLOR - EVERYBODY'S TALKIN
TTITLE11=THE MIAMI BEATS - THEME FOR MIAMI VICE
TTITLE12=THE TORNADOS - THEME FROM BATMAN
TTITLE13=JOHNNY H - THEME FROM GREASE
EXTD=
EXTT0=
EXTT1=
EXTT2=
EXTT3=
EXTT4=
EXTT5=
EXTT6=
EXTT7=
EXTT8=
EXTT9=
EXTT10=
EXTT11=
EXTT12=
EXTT13=
PLAYORDER=
